<?xml version="1.0" encoding="utf-8"?>
<!-- Generator: Adobe Illustrator 28.0.0, SVG Export Plug-In . SVG Version: 6.00 Build 0)  -->
<svg version="1.1" id="logo_white_stroke" xmlns="http://www.w3.org/2000/svg" xmlns:xlink="http://www.w3.org/1999/xlink" x="0px"
	 y="0px" viewBox="0 0 325.5 101.6" style="enable-background:new 0 0 325.5 101.6;" xml:space="preserve">
<style type="text/css">
	.st0{fill:#00D15F;}
	.st1{fill:#33DA7F;}
	.st2{fill:#FFFFFF;}
</style>
<g id="Layer_1">
	<path class="st0" d="M6,22.3c-2,2-3.2,4.8-3.2,7.6v68.9h293c2.9,0,5.6-1.1,7.6-3.2l16.1-16.1c2-2,3.2-4.8,3.2-7.6V2.8H30
		c-2.9,0-5.6,1.1-7.6,3.2L6,22.3z"/>
	<path class="st1" d="M242.8,2.8l-75.7,75.6c-13.1,13.1-30.8,20.4-49.3,20.4H2.9V37.9l0,0l38.8,38.7c5.6,5.6,14.7,5.6,20.4,0
		L136,2.8H242.8z"/>
	<path class="st2" d="M47.7,73.9L25.6,27.8h10c0,0,15.8,33.1,16.2,34.7H52c0.4-1.7,16.2-34.7,16.2-34.7h9.9L56,74L47.7,73.9
		L47.7,73.9z"/>
	<path class="st2" d="M120.9,54.4H85.1c1.3,7.5,6.8,12.2,13.9,12.2c5.8,0,9.7-2.3,11.6-6.5h9.3c-2.8,8.8-10.7,14.8-20.9,14.8
		c-13.4,0-23.3-9.8-23.3-24.1S85.4,26.7,99,26.7c12.1,0,22.1,10.4,22.1,24.1C121.1,52.2,121.1,53,120.9,54.4L120.9,54.4z M85.2,46.9
		h26.5c-0.6-6.3-5.7-11.8-12.7-11.8C91.9,35,86.6,39.7,85.2,46.9z"/>
	<path class="st2" d="M170,54.4h-35.8c1.3,7.5,6.8,12.2,13.9,12.2c5.8,0,9.7-2.3,11.6-6.5h9.3c-2.8,8.8-10.7,14.8-20.9,14.8
		c-13.4,0-23.3-9.8-23.3-24.1s9.7-24.1,23.3-24.1c12.1,0,22.1,10.4,22.1,24.1C170.2,52.2,170.2,53,170,54.4L170,54.4z M134.3,46.9
		h26.5c-0.6-6.3-5.7-11.8-12.7-11.8C141,35,135.7,39.7,134.3,46.9z"/>
	<path class="st2" d="M220.2,50.8v23.1h-8l-0.8-7.2c-3.5,5.3-9.8,8.2-15.4,8.2c-12.6,0-22.2-10.1-22.2-24.1s10.3-24.1,23.4-24.1
		C209.3,26.8,220.2,35.4,220.2,50.8z M211.1,50.8c0-10.2-6.7-15.8-13.9-15.8c-7.9,0-14.3,6.3-14.3,15.8s5.9,15.8,14.3,15.8
		C204.3,66.6,211.1,60.7,211.1,50.8z"/>
	<path class="st2" d="M226.3,73.9V46.6c0-11.5,7.4-19.8,18.9-19.8c9.3,0,14.2,6.2,14.9,8.4h0.2c0.7-2.2,5.6-8.4,14.9-8.4
		c11.5,0,18.9,8.3,18.9,19.8v27.3h-9V47.3c0-7.5-3.4-12-10.2-12s-10.2,4.5-10.2,12.2V74h-9.1V47.5c0-7.7-3.4-12.2-10.2-12.2
		s-10.2,4.5-10.2,12v26.6H226.3L226.3,73.9z"/>
	<path class="st2" d="M322.7,2.8v69.1c0,2.9-1.1,5.6-3.2,7.6l-16.1,16.1c-2,2-4.8,3.2-7.6,3.2H2.8V29.9c0-2.9,1.1-5.6,3.2-7.6
		L22.3,6c2-2,4.8-3.2,7.6-3.2H322.7 M325.5,0H30c-3.6,0-7.1,1.4-9.6,4L4,20.3c-2.5,2.5-4,6-4,9.6v71.7h295.8c3.6,0,7.1-1.4,9.6-4
		l16.1-16.1c2.5-2.5,4-6,4-9.6V0L325.5,0L325.5,0z"/>
</g>
</svg>
